<svg width="37" height="32" viewBox="0 0 37 32" fill="none" xmlns="http://www.w3.org/2000/svg">
<path d="M18.4009 21.6703L14.0761 19.1207C14.3179 18.8053 14.529 18.4365 14.7061 17.9986C15.1147 18.2132 15.6971 18.4135 16.1602 18.5474C17.3418 18.8888 18.8623 18.896 20.0389 18.5417C21.0226 18.2434 21.5727 17.8038 22.2946 17.2269L22.3256 17.202C23.48 16.2845 24.3654 15.5772 24.4029 14.0474C24.9614 14.0762 25.4432 13.7694 25.8059 13.3056C26.4291 12.5119 26.9807 10.3685 25.5079 10.0891C28.4757 7.21391 26.3712 1.87269 22.0055 1.67967C17.8084 -1.24158 12.7991 -0.364345 8.23589 4.40501C11.0811 5.13244 9.94368 9.95942 10.3421 10.1827C9.1298 11.0642 9.85684 13.9178 11.5204 14.0431C11.6992 15.7198 12.6356 16.4155 13.756 17.2337C14.0403 17.4426 14.3264 17.6659 14.6278 17.856C13.5193 18.2248 13.79 18.3285 13.1839 18.9666C12.6016 19.7848 12.2134 20.7268 12.353 21.4874C12.4058 21.7784 12.9149 21.8417 13.1447 22.0621C13.5764 22.4762 13.9586 22.9254 14.2855 23.4032C14.3366 23.4781 14.3639 23.5631 14.3639 23.6495C14.3639 23.7143 14.3485 23.7792 14.3196 23.8397C15.0466 24.9877 15.5387 26.2553 15.4161 26.8286C15.331 27.2089 15.033 27.4336 14.6107 27.5474C14.2821 27.6338 13.9348 27.6684 13.5891 27.6684C13.5568 27.6684 13.5227 27.667 13.4904 27.667C13.3422 27.7649 13.1413 27.8413 12.9506 27.8413C12.4347 27.8413 12.1129 27.3976 12.3155 27.0058C12.4313 26.7811 12.6884 26.6197 12.9779 26.6269C13.2077 26.6341 13.5312 26.7134 13.5908 26.8862C13.6181 26.964 13.584 26.9222 13.63 27.0015C13.8752 26.9972 14.1221 26.9669 14.3587 26.915C14.5171 26.8718 14.6176 26.8099 14.6397 26.7062C14.7384 26.2668 14.323 25.1101 13.5891 24.1033C13.521 24.0096 13.3661 23.9895 13.3014 23.8944C13.0153 23.4738 12.6799 23.0748 12.3002 22.7118C12.1759 22.5922 12.0363 22.4842 11.8864 22.3891C11.7707 22.3142 11.6872 22.3459 11.5442 22.3877C11.282 22.4669 10.9312 22.6412 10.8206 22.7521C10.4645 23.1131 10.1471 23.5002 9.87217 23.9088C9.80813 24.0053 9.7055 24.0794 9.58271 24.1177C9.55547 24.1595 9.52993 24.2027 9.50439 24.2459C8.86758 25.3046 8.42659 26.4008 8.58834 26.7955C8.60367 26.8401 8.67688 26.8819 8.80118 26.9093C9.01231 26.9568 9.23196 26.9755 9.4499 26.9755C9.5095 26.9755 9.56909 26.9727 9.62868 26.9698C9.64571 26.9439 9.6355 26.9295 9.64742 26.8963C9.74617 26.5981 10.6367 26.4483 10.9227 27.0058C10.9712 27.0957 10.9922 27.1946 10.9838 27.2931C10.9753 27.3917 10.9378 27.487 10.8746 27.5701C10.8114 27.6533 10.7246 27.7217 10.622 27.769C10.5194 27.8164 10.4045 27.8412 10.2876 27.8413C10.0816 27.8413 9.85514 27.7519 9.7036 27.6338C9.32087 27.6587 8.93591 27.6295 8.56451 27.5474C8.19332 27.4495 7.94132 27.2737 7.83746 27.0058C7.61271 26.4411 8.08435 25.1318 8.80629 23.9419L8.85907 23.8555C8.89483 23.7979 8.8114 23.7302 8.8114 23.6639C8.8114 23.5804 8.83864 23.4968 8.88972 23.4234C9.20087 22.9637 9.55986 22.5284 9.96241 22.1226C10.1923 21.8878 10.9159 21.6775 11.2071 21.4975C11.2513 20.9299 11.3927 20.2745 11.6464 19.6206C11.1083 19.743 10.5005 19.8482 9.85684 19.9274C2.63235 20.8233 0.466536 23.2304 0 29.8593C0.0868369 30.6271 0.604453 31.0736 1.61925 31.1385H34.3976C35.4141 31.0736 35.9301 30.63 36.0169 29.8593C35.1945 23.8397 35.5453 21.908 29.4343 20.4632C28.1641 20.1636 26.7373 20.142 25.6458 19.9245C25.3172 19.8337 24.9971 19.7257 24.6906 19.5903C25.0431 20.6361 25.135 21.8014 25.0976 22.9034C25.0891 23.1526 25.038 23.2419 25.0874 23.2635C25.7804 23.5559 26.2333 23.736 26.6504 24.3467C26.8411 24.6276 26.9518 24.9459 26.9518 25.2988C26.9518 25.9701 26.5789 26.5679 25.9983 26.9525C24.8745 27.6943 23.5992 27.5258 22.724 26.7854C22.2745 26.4066 21.997 25.8808 21.997 25.3017C21.997 24.3193 22.8041 23.468 23.938 23.2534C23.9432 23.1771 23.9517 23.1108 23.9602 22.8818C24.0198 21.061 23.6299 18.8081 21.8267 17.7364C22.0055 18.1355 22.2354 18.5186 22.4601 18.8096L18.4009 21.6703Z" fill="#4200FF"/>
<path d="M6.53912 20.8359C6.40122 20.7875 6.2534 20.7626 6.10412 20.7626C5.80246 20.7626 5.51316 20.864 5.29986 21.0445C5.08655 21.2249 4.96672 21.4697 4.96672 21.7249C4.96672 22.2549 5.47583 22.6856 6.10412 22.6856C6.73241 22.6856 7.23981 22.2549 7.23981 21.7249C7.24003 21.5986 7.21082 21.4735 7.15385 21.3567C7.09688 21.24 7.01325 21.1339 6.90777 21.0445C6.80229 20.9552 6.67702 20.8843 6.53912 20.8359Z" fill="#4200FF"/>
</svg>
