<svg width="26" height="25" viewBox="0 0 26 25" fill="none" xmlns="http://www.w3.org/2000/svg">
<path d="M5.23671 6.58368C7.29941 4.73829 9.60326 3.32439 11.1615 2.46808C12.2972 1.84397 13.7027 1.84397 14.8384 2.46808C16.3967 3.32439 18.7006 4.73829 20.7633 6.58368C25.2355 10.5847 24.9978 12.8976 24.9978 16.686C24.9978 18.4663 24.8419 19.9678 24.6767 21.0593C24.5029 22.2077 23.3833 23 22.0879 23H20.0575C18.4984 23 17.2345 21.8693 17.2345 20.4744V17.9488C17.2345 16.9441 16.7884 15.9805 15.9943 15.27C15.2001 14.5596 14.1231 14.1604 13 14.1604C11.8769 14.1604 10.7999 14.5596 10.0057 15.27C9.21161 15.9805 8.76548 16.9441 8.76548 17.9488V20.4744C8.76548 21.8693 7.50157 23 5.94246 23H3.91209C2.6167 23 1.49713 22.2077 1.32328 21.0593C1.15805 19.9678 1.00219 18.4663 1.00219 16.686C1.00219 12.8976 0.764498 10.5847 5.23671 6.58368Z" stroke="#4200FF" stroke-width="1.5" stroke-linecap="round" stroke-linejoin="round"/>
</svg>
