<svg width="19" height="23" viewBox="0 0 19 23" fill="none" xmlns="http://www.w3.org/2000/svg">
<path d="M9.5 23C10.9979 23 12.213 21.713 12.213 20.125H6.78699C6.78699 21.713 8.00206 23 9.5 23ZM18.6348 16.2747C17.8154 15.3422 16.2823 13.9393 16.2823 9.34375C16.2823 5.85332 13.9718 3.05918 10.8563 2.37367V1.4375C10.8563 0.64373 10.249 0 9.5 0C8.75103 0 8.14371 0.64373 8.14371 1.4375V2.37367C5.02823 3.05918 2.7177 5.85332 2.7177 9.34375C2.7177 13.9393 1.18456 15.3422 0.365184 16.2747C0.110721 16.5645 -0.00209121 16.9108 2.93222e-05 17.25C0.00469449 17.9867 0.550519 18.6875 1.36141 18.6875H17.6386C18.4495 18.6875 18.9957 17.9867 19 17.25C19.0021 16.9108 18.8893 16.564 18.6348 16.2747Z" fill="#F2F2F2"/>
</svg>
